<mxfile host="65bd71144e" modified="2020-11-21T08:30:07.244Z" agent="5.0 (Windows NT 10.0; Win64; x64) AppleWebKit/537.36 (KHTML, like Gecko) Code/1.51.1 Chrome/83.0.4103.122 Electron/9.3.3 Safari/537.36" etag="0CB9Yn3O7WE8MX3w9vxu" version="13.6.5">
    <diagram id="wx6fKO2QuID2BFAPq64R" name="Page-1">
        <mxGraphModel dx="990" dy="585" grid="1" gridSize="10" guides="1" tooltips="1" connect="1" arrows="1" fold="1" page="1" pageScale="1" pageWidth="850" pageHeight="1100" background="#FFFFFF" math="0" shadow="0">
            <root>
                <mxCell id="0"/>
                <mxCell id="1" parent="0"/>
                <mxCell id="4" value="User&lt;br&gt;" style="shape=umlActor;verticalLabelPosition=bottom;verticalAlign=top;html=1;" parent="1" vertex="1">
                    <mxGeometry x="30" y="175" width="30" height="60" as="geometry"/>
                </mxCell>
                <mxCell id="5" value="Giao diện Statistics : UI" style="shape=umlBoundary;whiteSpace=wrap;html=1;" parent="1" vertex="1">
                    <mxGeometry x="300" y="160" width="100" height="80" as="geometry"/>
                </mxCell>
                <mxCell id="6" value="Database" style="ellipse;shape=umlEntity;whiteSpace=wrap;html=1;" parent="1" vertex="1">
                    <mxGeometry x="960" y="160" width="80" height="80" as="geometry"/>
                </mxCell>
                <mxCell id="7" value="Statistics&amp;nbsp;: Statistics Controller" style="ellipse;shape=umlControl;whiteSpace=wrap;html=1;" parent="1" vertex="1">
                    <mxGeometry x="640" y="150" width="80" height="90" as="geometry"/>
                </mxCell>
                <mxCell id="8" value="" style="html=1;verticalAlign=bottom;endArrow=block;startSize=7;endSize=20;endFill=1;sourcePerimeterSpacing=2;" parent="1" edge="1">
                    <mxGeometry x="0.25" y="70" width="80" relative="1" as="geometry">
                        <mxPoint x="180" y="180" as="sourcePoint"/>
                        <mxPoint x="220" y="180" as="targetPoint"/>
                        <mxPoint as="offset"/>
                    </mxGeometry>
                </mxCell>
                <mxCell id="10" value="" style="line;strokeWidth=1;rotatable=0;dashed=0;labelPosition=right;align=left;verticalAlign=middle;spacingTop=0;spacingLeft=6;points=[];portConstraint=eastwest;" parent="1" vertex="1">
                    <mxGeometry x="60" y="195" width="240" height="10" as="geometry"/>
                </mxCell>
                <mxCell id="12" value="" style="line;strokeWidth=1;rotatable=0;dashed=0;labelPosition=right;align=left;verticalAlign=middle;spacingTop=0;spacingLeft=6;points=[];portConstraint=eastwest;" parent="1" vertex="1">
                    <mxGeometry x="400" y="195" width="240" height="10" as="geometry"/>
                </mxCell>
                <mxCell id="13" value="" style="html=1;verticalAlign=bottom;endArrow=block;startSize=7;endSize=20;endFill=1;sourcePerimeterSpacing=2;" parent="1" edge="1">
                    <mxGeometry x="0.25" y="70" width="80" relative="1" as="geometry">
                        <mxPoint x="500" y="180" as="sourcePoint"/>
                        <mxPoint x="540" y="180" as="targetPoint"/>
                        <mxPoint as="offset"/>
                    </mxGeometry>
                </mxCell>
                <mxCell id="15" value="" style="line;strokeWidth=1;rotatable=0;dashed=0;labelPosition=right;align=left;verticalAlign=middle;spacingTop=0;spacingLeft=6;points=[];portConstraint=eastwest;" parent="1" vertex="1">
                    <mxGeometry x="720" y="200" width="240" height="10" as="geometry"/>
                </mxCell>
                <mxCell id="16" value="" style="html=1;verticalAlign=bottom;endArrow=block;startSize=7;endSize=20;endFill=1;sourcePerimeterSpacing=2;" parent="1" edge="1">
                    <mxGeometry x="0.25" y="70" width="80" relative="1" as="geometry">
                        <mxPoint x="830" y="180" as="sourcePoint"/>
                        <mxPoint x="870" y="180" as="targetPoint"/>
                        <mxPoint as="offset"/>
                    </mxGeometry>
                </mxCell>
                <mxCell id="18" value="" style="html=1;verticalAlign=bottom;endArrow=block;startSize=7;endSize=20;endFill=1;sourcePerimeterSpacing=2;" parent="1" edge="1">
                    <mxGeometry x="0.25" y="70" width="80" relative="1" as="geometry">
                        <mxPoint x="220" y="230" as="sourcePoint"/>
                        <mxPoint x="180" y="230" as="targetPoint"/>
                        <mxPoint as="offset"/>
                    </mxGeometry>
                </mxCell>
                <mxCell id="19" value="&lt;span style=&quot;color: rgba(0 , 0 , 0 , 0) ; font-family: monospace ; font-size: 0px&quot;&gt;%3CmxGraphModel%3E%3Croot%3E%3CmxCell%20id%3D%220%22%2F%3E%3CmxCell%20id%3D%221%22%20parent%3D%220%22%2F%3E%3CmxCell%20id%3D%222%22%20value%3D%22%22%20style%3D%22html%3D1%3BverticalAlign%3Dbottom%3BendArrow%3Dblock%3BstartSize%3D7%3BendSize%3D20%3BendFill%3D1%3BsourcePerimeterSpacing%3D2%3B%22%20edge%3D%221%22%20parent%3D%221%22%3E%3CmxGeometry%20x%3D%220.25%22%20y%3D%2270%22%20width%3D%2280%22%20relative%3D%221%22%20as%3D%22geometry%22%3E%3CmxPoint%20x%3D%22190%22%20y%3D%22180%22%20as%3D%22sourcePoint%22%2F%3E%3CmxPoint%20x%3D%22230%22%20y%3D%22180%22%20as%3D%22targetPoint%22%2F%3E%3CmxPoint%20as%3D%22offset%22%2F%3E%3C%2FmxGeometry%3E%3C%2FmxCell%3E%3C%2Froot%3E%3C%2FmxGraphModel%3E&lt;/span&gt;&lt;span style=&quot;color: rgba(0 , 0 , 0 , 0) ; font-family: monospace ; font-size: 0px&quot;&gt;%3CmxGraphModel%3E%3Croot%3E%3CmxCell%20id%3D%220%22%2F%3E%3CmxCell%20id%3D%221%22%20parent%3D%220%22%2F%3E%3CmxCell%20id%3D%222%22%20value%3D%22%22%20style%3D%22html%3D1%3BverticalAlign%3Dbottom%3BendArrow%3Dblock%3BstartSize%3D7%3BendSize%3D20%3BendFill%3D1%3BsourcePerimeterSpacing%3D2%3B%22%20edge%3D%221%22%20parent%3D%221%22%3E%3CmxGeometry%20x%3D%220.25%22%20y%3D%2270%22%20width%3D%2280%22%20relative%3D%221%22%20as%3D%22geometry%22%3E%3CmxPoint%20x%3D%22190%22%20y%3D%22180%22%20as%3D%22sourcePoint%22%2F%3E%3CmxPoint%20x%3D%22230%22%20y%3D%22180%22%20as%3D%22targetPoint%22%2F%3E%3CmxPoint%20as%3D%22offset%22%2F%3E%3C%2FmxGeometry%3E%3C%2FmxCell%3E%3C%2Froot%3E%3C%2FmxGraphModel%3E&lt;/span&gt;" style="text;html=1;align=center;verticalAlign=middle;resizable=0;points=[];autosize=1;" parent="1" vertex="1">
                    <mxGeometry x="160" y="300" width="20" height="20" as="geometry"/>
                </mxCell>
                <mxCell id="37" value="" style="html=1;verticalAlign=bottom;endArrow=block;startSize=7;endSize=20;endFill=1;sourcePerimeterSpacing=2;" parent="1" edge="1">
                    <mxGeometry x="0.25" y="70" width="80" relative="1" as="geometry">
                        <mxPoint x="540" y="230" as="sourcePoint"/>
                        <mxPoint x="500" y="230" as="targetPoint"/>
                        <mxPoint as="offset"/>
                    </mxGeometry>
                </mxCell>
                <mxCell id="38" value="" style="html=1;verticalAlign=bottom;endArrow=block;startSize=7;endSize=20;endFill=1;sourcePerimeterSpacing=2;" parent="1" edge="1">
                    <mxGeometry x="0.25" y="70" width="80" relative="1" as="geometry">
                        <mxPoint x="870" y="230" as="sourcePoint"/>
                        <mxPoint x="830" y="230" as="targetPoint"/>
                        <mxPoint as="offset"/>
                    </mxGeometry>
                </mxCell>
                <mxCell id="44" value="&lt;span style=&quot;color: rgb(0 , 0 , 0) ; font-family: &amp;#34;helvetica&amp;#34; ; font-size: 12px ; font-style: normal ; font-weight: 400 ; letter-spacing: normal ; text-indent: 0px ; text-transform: none ; word-spacing: 0px ; background-color: rgb(248 , 249 , 250) ; display: inline ; float: none&quot;&gt;1 : Nhấn vào &quot;More Actions&quot;&lt;br&gt;&lt;span style=&quot;font-family: &amp;#34;helvetica&amp;#34;&quot;&gt;3 :Nhấn &quot;Completed Task Statistics&quot;&lt;br&gt;&lt;/span&gt;&lt;span style=&quot;font-family: &amp;#34;helvetica&amp;#34;&quot;&gt;4 : Nhấn &quot;Deadline Task Statistics&quot;&lt;br&gt;&lt;/span&gt;&lt;span style=&quot;font-family: &amp;#34;helvetica&amp;#34;&quot;&gt;5 : Nhấn &quot;Tag Task Statistics&quot;&lt;br&gt;&lt;/span&gt;&lt;span style=&quot;font-family: &amp;#34;helvetica&amp;#34;&quot;&gt;6 : Nhấn &quot;Achievement Statistics&quot;&lt;br&gt;&lt;/span&gt;&lt;span style=&quot;font-family: &amp;#34;helvetica&amp;#34;&quot;&gt;7 : Nhấn &quot;Pomodoro Statistics&quot;&lt;br&gt;&lt;/span&gt;&lt;span style=&quot;font-family: &amp;#34;helvetica&amp;#34;&quot;&gt;8 : Nhấn &quot;Using App Statistics&quot;&lt;/span&gt;&lt;br&gt;&lt;/span&gt;" style="text;whiteSpace=wrap;html=1;" vertex="1" parent="1">
                    <mxGeometry x="120" y="40" width="200" height="100" as="geometry"/>
                </mxCell>
                <mxCell id="45" value="&lt;span style=&quot;color: rgb(0 , 0 , 0) ; font-family: &amp;#34;helvetica&amp;#34; ; font-size: 12px ; font-style: normal ; font-weight: 400 ; letter-spacing: normal ; text-indent: 0px ; text-transform: none ; word-spacing: 0px ; background-color: rgb(248 , 249 , 250) ; display: inline ; float: none&quot;&gt;1.1 : Hiển thị tùy chọn&lt;br&gt;&lt;span style=&quot;font-family: &amp;#34;helvetica&amp;#34;&quot;&gt;2.5 : Thông tin hiển thị&lt;br&gt;&lt;/span&gt;&lt;span style=&quot;font-family: &amp;#34;helvetica&amp;#34;&quot;&gt;3.5 : Thông tin hiển thị&lt;br&gt;&lt;/span&gt;&lt;span style=&quot;font-family: &amp;#34;helvetica&amp;#34;&quot;&gt;4.5 : Thông tin hiển thị&lt;br&gt;&lt;/span&gt;&lt;span style=&quot;font-family: &amp;#34;helvetica&amp;#34;&quot;&gt;5.5 : Thông tin hiển thị&lt;br&gt;&lt;/span&gt;&lt;span style=&quot;font-family: &amp;#34;helvetica&amp;#34;&quot;&gt;6.5 : Thông tin hiển thị&lt;br&gt;&lt;/span&gt;&lt;span style=&quot;font-family: &amp;#34;helvetica&amp;#34;&quot;&gt;7.5 : Thông tin hiển thị&lt;br&gt;&lt;/span&gt;&lt;span style=&quot;font-family: &amp;#34;helvetica&amp;#34;&quot;&gt;8.5 : Thông tin hiển thị&lt;/span&gt;&lt;br&gt;&lt;/span&gt;" style="text;whiteSpace=wrap;html=1;" vertex="1" parent="1">
                    <mxGeometry x="120" y="260" width="130" height="120" as="geometry"/>
                </mxCell>
                <mxCell id="46" value="&lt;span style=&quot;color: rgb(0 , 0 , 0) ; font-family: &amp;#34;helvetica&amp;#34; ; font-size: 12px ; font-style: normal ; font-weight: 400 ; letter-spacing: normal ; text-indent: 0px ; text-transform: none ; word-spacing: 0px ; background-color: rgb(248 , 249 , 250) ; display: inline ; float: none&quot;&gt;2 : Nhấn vào &quot;All Task Statistics&quot;&lt;br&gt;&lt;span&gt;3.1 : Truy xuất danh sách &quot;Completed Task&quot;&lt;br&gt;&lt;/span&gt;&lt;span&gt;4.1 : Truy xuất danh sách &quot;Deadline Task&quot;&lt;br&gt;&lt;/span&gt;&lt;span&gt;5.1 : Truy xuất danh sách &quot;Tag Task&quot;&lt;br&gt;&lt;/span&gt;&lt;span&gt;6.1 : Truy xuất danh sách &quot;Achievement&quot;&lt;br&gt;&lt;/span&gt;&lt;span&gt;7.1 : Truy xuất danh sách &quot;Pomodoro&quot;&lt;br&gt;&lt;/span&gt;&lt;span&gt;8.1 : Truy xuất danh sách thời gian sử dụng&lt;/span&gt;&lt;br&gt;&lt;/span&gt;" style="text;whiteSpace=wrap;html=1;" vertex="1" parent="1">
                    <mxGeometry x="440" y="40" width="240" height="100" as="geometry"/>
                </mxCell>
                <mxCell id="47" value="&lt;span style=&quot;color: rgb(0 , 0 , 0) ; font-family: &amp;#34;helvetica&amp;#34; ; font-size: 12px ; font-style: normal ; font-weight: 400 ; letter-spacing: normal ; text-indent: 0px ; text-transform: none ; word-spacing: 0px ; background-color: rgb(248 , 249 , 250) ; display: inline ; float: none&quot;&gt;2.2 : Yêu cầu thống kê Task&lt;br&gt;&lt;span style=&quot;font-family: &amp;#34;helvetica&amp;#34;&quot;&gt;3.2 : Yêu cầu thống kê &quot;Completed Task&quot;&lt;br&gt;&lt;/span&gt;&lt;span style=&quot;font-family: &amp;#34;helvetica&amp;#34;&quot;&gt;4.2 : Yêu cầu thống kê &quot;Deadline Task&quot;&lt;br&gt;&lt;/span&gt;&lt;span style=&quot;font-family: &amp;#34;helvetica&amp;#34;&quot;&gt;5.2 : Yêu cầu thống kê &quot;Tag Task&quot;&lt;br&gt;&lt;/span&gt;&lt;span style=&quot;font-family: &amp;#34;helvetica&amp;#34;&quot;&gt;6.2 : Yêu cầu thống kê &quot;Achievement&quot;&lt;br&gt;&lt;/span&gt;&lt;span style=&quot;font-family: &amp;#34;helvetica&amp;#34;&quot;&gt;7.2 : Yêu cầu thống kê &quot;Pomodoro&quot;&lt;br&gt;&lt;/span&gt;&lt;span style=&quot;font-family: &amp;#34;helvetica&amp;#34;&quot;&gt;8.2 : Yêu cầu thống kê thời gian sử dụng&lt;/span&gt;&lt;br&gt;&lt;/span&gt;" style="text;whiteSpace=wrap;html=1;" vertex="1" parent="1">
                    <mxGeometry x="790" y="40" width="230" height="100" as="geometry"/>
                </mxCell>
                <mxCell id="48" value="&lt;span style=&quot;color: rgb(0 , 0 , 0) ; font-family: &amp;#34;helvetica&amp;#34; ; font-size: 12px ; font-style: normal ; font-weight: 400 ; letter-spacing: normal ; text-indent: 0px ; text-transform: none ; word-spacing: 0px ; background-color: rgb(248 , 249 , 250) ; display: inline ; float: none&quot;&gt;2.3 : Thống kê Task&lt;br&gt;&lt;span style=&quot;font-family: &amp;#34;helvetica&amp;#34;&quot;&gt;3.3 : Thống kê &quot;Completed Task&quot;&lt;br&gt;&lt;/span&gt;&lt;span style=&quot;font-family: &amp;#34;helvetica&amp;#34;&quot;&gt;4.3 : Thống kê &quot;Deadline Task&quot;&lt;br&gt;&lt;/span&gt;&lt;span style=&quot;font-family: &amp;#34;helvetica&amp;#34;&quot;&gt;5.3 : Thống kê &quot;Tag Task&quot;&lt;br&gt;&lt;/span&gt;&lt;span style=&quot;font-family: &amp;#34;helvetica&amp;#34;&quot;&gt;6.3 : Thống kê &quot;Achievement&quot;&lt;br&gt;&lt;/span&gt;&lt;span style=&quot;font-family: &amp;#34;helvetica&amp;#34;&quot;&gt;7.3 : Thống kê &quot;Pomodoro&quot;&lt;br&gt;&lt;/span&gt;&lt;span style=&quot;font-family: &amp;#34;helvetica&amp;#34;&quot;&gt;8.3 : Thống kê thời gian sử dụng&lt;/span&gt;&lt;br&gt;&lt;/span&gt;" style="text;whiteSpace=wrap;html=1;" vertex="1" parent="1">
                    <mxGeometry x="790" y="260" width="180" height="100" as="geometry"/>
                </mxCell>
                <mxCell id="49" value="&lt;span style=&quot;color: rgb(0 , 0 , 0) ; font-family: &amp;#34;helvetica&amp;#34; ; font-size: 12px ; font-style: normal ; font-weight: 400 ; letter-spacing: normal ; text-indent: 0px ; text-transform: none ; word-spacing: 0px ; background-color: rgb(248 , 249 , 250) ; display: inline ; float: none&quot;&gt;2.4 : Danh sách thống kê Task&lt;br&gt;3.4 :&amp;nbsp;Danh sách thống kê &quot;Completed Task&quot;&lt;br&gt;4.4 : Danh sách thống kê &quot;Deadline Task&quot;&lt;br&gt;5.4 : Danh sách thống kê &quot;Tag Task&quot;&lt;br&gt;6.4 : Danh sách thống kê &quot;Achievement&quot;&lt;br&gt;7.4 : Danh sách thống kê &quot;Pomodoro&quot;&lt;br&gt;8.4 : Danh sách thống kê thời gian sử dụng&lt;br&gt;&lt;/span&gt;" style="text;whiteSpace=wrap;html=1;" vertex="1" parent="1">
                    <mxGeometry x="440" y="260" width="240" height="100" as="geometry"/>
                </mxCell>
            </root>
        </mxGraphModel>
    </diagram>
</mxfile>